<mxfile host="app.diagrams.net" agent="Mozilla/5.0 (Windows NT 10.0; Win64; x64; rv:134.0) Gecko/20100101 Firefox/134.0" version="26.0.5" pages="3">
  <diagram name="Page-1" id="90a13364-a465-7bf4-72fc-28e22215d7a0">
    <mxGraphModel dx="1434" dy="754" grid="1" gridSize="10" guides="1" tooltips="1" connect="1" arrows="1" fold="1" page="1" pageScale="1.5" pageWidth="827" pageHeight="1169" background="none" math="0" shadow="0">
      <root>
        <mxCell id="0" style=";html=1;" />
        <mxCell id="1" style=";html=1;" parent="0" />
        <mxCell id="355GLdrolQoe34CYBVQ8-6" value="" style="rounded=0;whiteSpace=wrap;html=1;" vertex="1" parent="1">
          <mxGeometry x="925" y="75" width="180" height="250" as="geometry" />
        </mxCell>
        <mxCell id="35C-zRPfyHv-aXlCUiWr-6" value="" style="rounded=0;whiteSpace=wrap;html=1;" parent="1" vertex="1">
          <mxGeometry x="600" y="470" width="880" height="547.5" as="geometry" />
        </mxCell>
        <mxCell id="jSPrN0brKESPCwidPNHG-5" value="&lt;font style=&quot;font-size: 18px;&quot;&gt;Microcontrolador&lt;/font&gt;" style="rounded=0;whiteSpace=wrap;html=1;direction=south;fontSize=20;" parent="1" vertex="1">
          <mxGeometry x="600" y="60" width="180" height="237" as="geometry" />
        </mxCell>
        <mxCell id="355GLdrolQoe34CYBVQ8-1" value="&lt;font style=&quot;font-size: 19px;&quot;&gt;N-Mos&lt;/font&gt;" style="whiteSpace=wrap;html=1;aspect=fixed;fontSize=20;" vertex="1" parent="1">
          <mxGeometry x="940" y="100" width="60" height="60" as="geometry" />
        </mxCell>
        <mxCell id="355GLdrolQoe34CYBVQ8-3" value="&lt;font style=&quot;font-size: 19px;&quot;&gt;Heater&lt;/font&gt;" style="whiteSpace=wrap;html=1;aspect=fixed;fontSize=20;" vertex="1" parent="1">
          <mxGeometry x="1030" y="100" width="60" height="60" as="geometry" />
        </mxCell>
        <mxCell id="355GLdrolQoe34CYBVQ8-4" value="&lt;div&gt;Cooler (v cte)&lt;br&gt;&lt;/div&gt;" style="rounded=0;whiteSpace=wrap;html=1;" vertex="1" parent="1">
          <mxGeometry x="940" y="230" width="150" height="60" as="geometry" />
        </mxCell>
        <mxCell id="355GLdrolQoe34CYBVQ8-5" value="Termistor" style="rounded=0;whiteSpace=wrap;html=1;" vertex="1" parent="1">
          <mxGeometry x="940" y="180" width="150" height="40" as="geometry" />
        </mxCell>
        <mxCell id="355GLdrolQoe34CYBVQ8-7" value="" style="endArrow=classic;html=1;rounded=0;entryX=0;entryY=0.5;entryDx=0;entryDy=0;exitX=0.844;exitY=0;exitDx=0;exitDy=0;exitPerimeter=0;" edge="1" parent="1" source="jSPrN0brKESPCwidPNHG-5" target="355GLdrolQoe34CYBVQ8-4">
          <mxGeometry width="50" height="50" relative="1" as="geometry">
            <mxPoint x="830" y="310" as="sourcePoint" />
            <mxPoint x="880" y="260" as="targetPoint" />
          </mxGeometry>
        </mxCell>
        <mxCell id="355GLdrolQoe34CYBVQ8-8" value="" style="endArrow=classic;html=1;rounded=0;entryX=0;entryY=0.5;entryDx=0;entryDy=0;" edge="1" parent="1" target="355GLdrolQoe34CYBVQ8-5">
          <mxGeometry width="50" height="50" relative="1" as="geometry">
            <mxPoint x="781" y="200" as="sourcePoint" />
            <mxPoint x="960" y="300" as="targetPoint" />
          </mxGeometry>
        </mxCell>
        <mxCell id="355GLdrolQoe34CYBVQ8-9" value="" style="endArrow=classic;html=1;rounded=0;entryX=0;entryY=0.5;entryDx=0;entryDy=0;exitX=0.295;exitY=0.005;exitDx=0;exitDy=0;exitPerimeter=0;" edge="1" parent="1" source="jSPrN0brKESPCwidPNHG-5" target="355GLdrolQoe34CYBVQ8-1">
          <mxGeometry width="50" height="50" relative="1" as="geometry">
            <mxPoint x="820" y="170" as="sourcePoint" />
            <mxPoint x="870" y="120" as="targetPoint" />
          </mxGeometry>
        </mxCell>
        <mxCell id="355GLdrolQoe34CYBVQ8-10" value="" style="endArrow=classic;html=1;rounded=0;entryX=0;entryY=0.5;entryDx=0;entryDy=0;exitX=1;exitY=0.5;exitDx=0;exitDy=0;" edge="1" parent="1" source="355GLdrolQoe34CYBVQ8-1" target="355GLdrolQoe34CYBVQ8-3">
          <mxGeometry width="50" height="50" relative="1" as="geometry">
            <mxPoint x="900" y="270" as="sourcePoint" />
            <mxPoint x="950" y="220" as="targetPoint" />
          </mxGeometry>
        </mxCell>
      </root>
    </mxGraphModel>
  </diagram>
  <diagram id="dFZz5i8Cy6UYqAbTh7uR" name="Página-2">
    <mxGraphModel dx="2261" dy="754" grid="1" gridSize="10" guides="1" tooltips="1" connect="1" arrows="1" fold="1" page="1" pageScale="1" pageWidth="827" pageHeight="1169" math="0" shadow="0">
      <root>
        <mxCell id="0" />
        <mxCell id="1" parent="0" />
        <mxCell id="2VRXxN_XEZRk6mcmsxM--8" style="edgeStyle=orthogonalEdgeStyle;rounded=0;orthogonalLoop=1;jettySize=auto;html=1;exitX=1;exitY=0.5;exitDx=0;exitDy=0;entryX=0;entryY=0.5;entryDx=0;entryDy=0;" parent="1" source="Uq3NfLOFYtls6R0m_rHG-1" target="2VRXxN_XEZRk6mcmsxM--16" edge="1">
          <mxGeometry relative="1" as="geometry">
            <Array as="points">
              <mxPoint x="60" y="518" />
              <mxPoint x="60" y="350" />
            </Array>
          </mxGeometry>
        </mxCell>
        <mxCell id="2VRXxN_XEZRk6mcmsxM--10" style="edgeStyle=orthogonalEdgeStyle;rounded=0;orthogonalLoop=1;jettySize=auto;html=1;exitX=1;exitY=0.5;exitDx=0;exitDy=0;entryX=0;entryY=0.5;entryDx=0;entryDy=0;" parent="1" source="Uq3NfLOFYtls6R0m_rHG-1" target="2VRXxN_XEZRk6mcmsxM--17" edge="1">
          <mxGeometry relative="1" as="geometry" />
        </mxCell>
        <mxCell id="2VRXxN_XEZRk6mcmsxM--12" style="edgeStyle=orthogonalEdgeStyle;rounded=0;orthogonalLoop=1;jettySize=auto;html=1;exitX=1;exitY=0.5;exitDx=0;exitDy=0;entryX=0;entryY=0.5;entryDx=0;entryDy=0;" parent="1" source="Uq3NfLOFYtls6R0m_rHG-1" target="2VRXxN_XEZRk6mcmsxM--23" edge="1">
          <mxGeometry relative="1" as="geometry">
            <Array as="points">
              <mxPoint x="60" y="518" />
              <mxPoint x="60" y="678" />
            </Array>
          </mxGeometry>
        </mxCell>
        <mxCell id="2VRXxN_XEZRk6mcmsxM--13" style="edgeStyle=orthogonalEdgeStyle;rounded=0;orthogonalLoop=1;jettySize=auto;html=1;exitX=1;exitY=0.5;exitDx=0;exitDy=0;entryX=0;entryY=0.5;entryDx=0;entryDy=0;" parent="1" source="Uq3NfLOFYtls6R0m_rHG-1" target="2VRXxN_XEZRk6mcmsxM--24" edge="1">
          <mxGeometry relative="1" as="geometry">
            <Array as="points">
              <mxPoint x="60" y="518" />
              <mxPoint x="60" y="860" />
            </Array>
          </mxGeometry>
        </mxCell>
        <mxCell id="Uq3NfLOFYtls6R0m_rHG-1" value="&lt;font style=&quot;font-size: 18px;&quot;&gt;Idle State&lt;/font&gt;" style="whiteSpace=wrap;html=1;aspect=fixed;" parent="1" vertex="1">
          <mxGeometry x="-120" y="440" width="155" height="155" as="geometry" />
        </mxCell>
        <mxCell id="2VRXxN_XEZRk6mcmsxM--1" value="Event &lt;br&gt;Ingresa al Granero" style="whiteSpace=wrap;html=1;aspect=fixed;" parent="1" vertex="1">
          <mxGeometry x="650" y="272.5" width="155" height="155" as="geometry" />
        </mxCell>
        <mxCell id="2VRXxN_XEZRk6mcmsxM--2" value="Event &lt;br&gt;Sale del Granero" style="whiteSpace=wrap;html=1;aspect=fixed;" parent="1" vertex="1">
          <mxGeometry x="650" y="440" width="155" height="155" as="geometry" />
        </mxCell>
        <mxCell id="2VRXxN_XEZRk6mcmsxM--3" value="Event &lt;br&gt;Cuenta máxima" style="whiteSpace=wrap;html=1;aspect=fixed;" parent="1" vertex="1">
          <mxGeometry x="650" y="600" width="155" height="155" as="geometry" />
        </mxCell>
        <mxCell id="2VRXxN_XEZRk6mcmsxM--4" value="Event&lt;br&gt;Error" style="whiteSpace=wrap;html=1;aspect=fixed;" parent="1" vertex="1">
          <mxGeometry x="650" y="782.5" width="155" height="155" as="geometry" />
        </mxCell>
        <mxCell id="2VRXxN_XEZRk6mcmsxM--21" style="edgeStyle=orthogonalEdgeStyle;rounded=0;orthogonalLoop=1;jettySize=auto;html=1;exitX=1;exitY=0.5;exitDx=0;exitDy=0;entryX=0;entryY=0.5;entryDx=0;entryDy=0;" parent="1" source="2VRXxN_XEZRk6mcmsxM--16" target="2VRXxN_XEZRk6mcmsxM--19" edge="1">
          <mxGeometry relative="1" as="geometry" />
        </mxCell>
        <mxCell id="2VRXxN_XEZRk6mcmsxM--39" style="edgeStyle=orthogonalEdgeStyle;rounded=0;orthogonalLoop=1;jettySize=auto;html=1;exitX=0.5;exitY=0;exitDx=0;exitDy=0;entryX=0.5;entryY=0;entryDx=0;entryDy=0;strokeColor=#FF6666;" parent="1" source="2VRXxN_XEZRk6mcmsxM--16" target="Uq3NfLOFYtls6R0m_rHG-1" edge="1">
          <mxGeometry relative="1" as="geometry" />
        </mxCell>
        <mxCell id="2VRXxN_XEZRk6mcmsxM--16" value="IRModule_A is active?" style="rhombus;whiteSpace=wrap;html=1;" parent="1" vertex="1">
          <mxGeometry x="290" y="290" width="120" height="120" as="geometry" />
        </mxCell>
        <mxCell id="2VRXxN_XEZRk6mcmsxM--22" style="edgeStyle=orthogonalEdgeStyle;rounded=0;orthogonalLoop=1;jettySize=auto;html=1;exitX=1;exitY=0.5;exitDx=0;exitDy=0;entryX=0;entryY=0.5;entryDx=0;entryDy=0;" parent="1" source="2VRXxN_XEZRk6mcmsxM--17" target="2VRXxN_XEZRk6mcmsxM--20" edge="1">
          <mxGeometry relative="1" as="geometry" />
        </mxCell>
        <mxCell id="2VRXxN_XEZRk6mcmsxM--38" style="edgeStyle=orthogonalEdgeStyle;rounded=0;orthogonalLoop=1;jettySize=auto;html=1;exitX=0.5;exitY=1;exitDx=0;exitDy=0;entryX=0.5;entryY=1;entryDx=0;entryDy=0;strokeColor=#FF6666;" parent="1" source="2VRXxN_XEZRk6mcmsxM--17" target="Uq3NfLOFYtls6R0m_rHG-1" edge="1">
          <mxGeometry relative="1" as="geometry">
            <Array as="points">
              <mxPoint x="350" y="610" />
              <mxPoint x="-42" y="610" />
            </Array>
          </mxGeometry>
        </mxCell>
        <mxCell id="2VRXxN_XEZRk6mcmsxM--17" value="IRModule_B is active?" style="rhombus;whiteSpace=wrap;html=1;" parent="1" vertex="1">
          <mxGeometry x="290" y="457.5" width="120" height="120" as="geometry" />
        </mxCell>
        <mxCell id="2VRXxN_XEZRk6mcmsxM--25" style="edgeStyle=orthogonalEdgeStyle;rounded=0;orthogonalLoop=1;jettySize=auto;html=1;exitX=1;exitY=0.5;exitDx=0;exitDy=0;entryX=0;entryY=0.5;entryDx=0;entryDy=0;" parent="1" source="2VRXxN_XEZRk6mcmsxM--19" target="2VRXxN_XEZRk6mcmsxM--1" edge="1">
          <mxGeometry relative="1" as="geometry" />
        </mxCell>
        <mxCell id="4NYzwK4U0VfKDkdtX9t3-1" style="edgeStyle=orthogonalEdgeStyle;rounded=0;orthogonalLoop=1;jettySize=auto;html=1;exitX=0.5;exitY=0;exitDx=0;exitDy=0;entryX=0.5;entryY=0;entryDx=0;entryDy=0;fillColor=#f8cecc;strokeColor=#b85450;" edge="1" parent="1" source="2VRXxN_XEZRk6mcmsxM--19" target="Uq3NfLOFYtls6R0m_rHG-1">
          <mxGeometry relative="1" as="geometry" />
        </mxCell>
        <mxCell id="2VRXxN_XEZRk6mcmsxM--19" value="IRModule_B is active?" style="rhombus;whiteSpace=wrap;html=1;" parent="1" vertex="1">
          <mxGeometry x="460" y="290" width="120" height="120" as="geometry" />
        </mxCell>
        <mxCell id="2VRXxN_XEZRk6mcmsxM--26" style="edgeStyle=orthogonalEdgeStyle;rounded=0;orthogonalLoop=1;jettySize=auto;html=1;exitX=1;exitY=0.5;exitDx=0;exitDy=0;entryX=0;entryY=0.5;entryDx=0;entryDy=0;" parent="1" source="2VRXxN_XEZRk6mcmsxM--20" target="2VRXxN_XEZRk6mcmsxM--2" edge="1">
          <mxGeometry relative="1" as="geometry" />
        </mxCell>
        <mxCell id="4NYzwK4U0VfKDkdtX9t3-2" style="edgeStyle=orthogonalEdgeStyle;rounded=0;orthogonalLoop=1;jettySize=auto;html=1;exitX=0.5;exitY=1;exitDx=0;exitDy=0;entryX=0.5;entryY=1;entryDx=0;entryDy=0;fillColor=#f8cecc;strokeColor=#b85450;" edge="1" parent="1" source="2VRXxN_XEZRk6mcmsxM--20" target="Uq3NfLOFYtls6R0m_rHG-1">
          <mxGeometry relative="1" as="geometry">
            <Array as="points">
              <mxPoint x="520" y="610" />
              <mxPoint x="-42" y="610" />
            </Array>
          </mxGeometry>
        </mxCell>
        <mxCell id="2VRXxN_XEZRk6mcmsxM--20" value="IRModule_A is active?" style="rhombus;whiteSpace=wrap;html=1;" parent="1" vertex="1">
          <mxGeometry x="460" y="457.5" width="120" height="120" as="geometry" />
        </mxCell>
        <mxCell id="2VRXxN_XEZRk6mcmsxM--27" style="edgeStyle=orthogonalEdgeStyle;rounded=0;orthogonalLoop=1;jettySize=auto;html=1;exitX=1;exitY=0.5;exitDx=0;exitDy=0;entryX=0;entryY=0.5;entryDx=0;entryDy=0;" parent="1" source="2VRXxN_XEZRk6mcmsxM--23" target="2VRXxN_XEZRk6mcmsxM--3" edge="1">
          <mxGeometry relative="1" as="geometry" />
        </mxCell>
        <mxCell id="2VRXxN_XEZRk6mcmsxM--35" style="edgeStyle=orthogonalEdgeStyle;rounded=0;orthogonalLoop=1;jettySize=auto;html=1;exitX=0.5;exitY=1;exitDx=0;exitDy=0;entryX=0.5;entryY=1;entryDx=0;entryDy=0;strokeColor=#FF6666;" parent="1" source="2VRXxN_XEZRk6mcmsxM--23" target="Uq3NfLOFYtls6R0m_rHG-1" edge="1">
          <mxGeometry relative="1" as="geometry" />
        </mxCell>
        <mxCell id="2VRXxN_XEZRk6mcmsxM--23" value="Count == MAX_COUNT?" style="rhombus;whiteSpace=wrap;html=1;" parent="1" vertex="1">
          <mxGeometry x="290" y="617.5" width="120" height="120" as="geometry" />
        </mxCell>
        <mxCell id="2VRXxN_XEZRk6mcmsxM--28" style="edgeStyle=orthogonalEdgeStyle;rounded=0;orthogonalLoop=1;jettySize=auto;html=1;exitX=1;exitY=0.5;exitDx=0;exitDy=0;entryX=0;entryY=0.5;entryDx=0;entryDy=0;" parent="1" source="2VRXxN_XEZRk6mcmsxM--24" target="2VRXxN_XEZRk6mcmsxM--4" edge="1">
          <mxGeometry relative="1" as="geometry" />
        </mxCell>
        <mxCell id="2VRXxN_XEZRk6mcmsxM--36" style="edgeStyle=orthogonalEdgeStyle;rounded=0;orthogonalLoop=1;jettySize=auto;html=1;exitX=0.5;exitY=1;exitDx=0;exitDy=0;entryX=0.5;entryY=1;entryDx=0;entryDy=0;strokeColor=#FF6666;" parent="1" source="2VRXxN_XEZRk6mcmsxM--24" target="Uq3NfLOFYtls6R0m_rHG-1" edge="1">
          <mxGeometry relative="1" as="geometry">
            <mxPoint x="-40" y="760" as="targetPoint" />
          </mxGeometry>
        </mxCell>
        <mxCell id="2VRXxN_XEZRk6mcmsxM--24" value="(IRModule_A &amp;amp;&amp;amp; IRModule_B)&lt;br&gt; is active?" style="rhombus;whiteSpace=wrap;html=1;" parent="1" vertex="1">
          <mxGeometry x="280" y="790" width="140" height="140" as="geometry" />
        </mxCell>
        <mxCell id="2VRXxN_XEZRk6mcmsxM--29" value="yes" style="text;html=1;align=center;verticalAlign=middle;whiteSpace=wrap;rounded=0;" parent="1" vertex="1">
          <mxGeometry x="400" y="320" width="60" height="30" as="geometry" />
        </mxCell>
        <mxCell id="2VRXxN_XEZRk6mcmsxM--30" value="yes" style="text;html=1;align=center;verticalAlign=middle;whiteSpace=wrap;rounded=0;" parent="1" vertex="1">
          <mxGeometry x="580" y="320" width="60" height="30" as="geometry" />
        </mxCell>
        <mxCell id="2VRXxN_XEZRk6mcmsxM--31" value="yes" style="text;html=1;align=center;verticalAlign=middle;whiteSpace=wrap;rounded=0;" parent="1" vertex="1">
          <mxGeometry x="400" y="490" width="60" height="30" as="geometry" />
        </mxCell>
        <mxCell id="2VRXxN_XEZRk6mcmsxM--32" value="yes" style="text;html=1;align=center;verticalAlign=middle;whiteSpace=wrap;rounded=0;" parent="1" vertex="1">
          <mxGeometry x="580" y="490" width="60" height="30" as="geometry" />
        </mxCell>
        <mxCell id="2VRXxN_XEZRk6mcmsxM--33" value="yes" style="text;html=1;align=center;verticalAlign=middle;whiteSpace=wrap;rounded=0;" parent="1" vertex="1">
          <mxGeometry x="410" y="650" width="60" height="30" as="geometry" />
        </mxCell>
        <mxCell id="2VRXxN_XEZRk6mcmsxM--34" value="yes" style="text;html=1;align=center;verticalAlign=middle;whiteSpace=wrap;rounded=0;" parent="1" vertex="1">
          <mxGeometry x="414" y="830" width="60" height="30" as="geometry" />
        </mxCell>
        <mxCell id="2VRXxN_XEZRk6mcmsxM--40" value="no" style="text;html=1;align=center;verticalAlign=middle;whiteSpace=wrap;rounded=0;" parent="1" vertex="1">
          <mxGeometry x="310" y="242.5" width="60" height="30" as="geometry" />
        </mxCell>
        <mxCell id="2VRXxN_XEZRk6mcmsxM--41" value="no" style="text;html=1;align=center;verticalAlign=middle;whiteSpace=wrap;rounded=0;" parent="1" vertex="1">
          <mxGeometry x="290" y="585" width="60" height="30" as="geometry" />
        </mxCell>
        <mxCell id="2VRXxN_XEZRk6mcmsxM--42" value="no" style="text;html=1;align=center;verticalAlign=middle;whiteSpace=wrap;rounded=0;" parent="1" vertex="1">
          <mxGeometry x="290" y="725" width="60" height="30" as="geometry" />
        </mxCell>
        <mxCell id="2VRXxN_XEZRk6mcmsxM--43" value="no" style="text;html=1;align=center;verticalAlign=middle;whiteSpace=wrap;rounded=0;" parent="1" vertex="1">
          <mxGeometry x="290" y="920" width="60" height="30" as="geometry" />
        </mxCell>
        <mxCell id="2VRXxN_XEZRk6mcmsxM--44" value="Green Led_1 ON (500ms)" style="rounded=1;whiteSpace=wrap;html=1;" parent="1" vertex="1">
          <mxGeometry x="667.5" y="367.5" width="120" height="60" as="geometry" />
        </mxCell>
        <mxCell id="2VRXxN_XEZRk6mcmsxM--45" value="Green Led_2 ON (500ms)" style="rounded=1;whiteSpace=wrap;html=1;" parent="1" vertex="1">
          <mxGeometry x="667.5" y="535" width="120" height="60" as="geometry" />
        </mxCell>
        <mxCell id="2VRXxN_XEZRk6mcmsxM--46" value="Red Led_1 Toggle (300ms)" style="rounded=1;whiteSpace=wrap;html=1;" parent="1" vertex="1">
          <mxGeometry x="667.5" y="695" width="120" height="60" as="geometry" />
        </mxCell>
        <mxCell id="2VRXxN_XEZRk6mcmsxM--47" value="Red Led_2 Toggle (200ms)" style="rounded=1;whiteSpace=wrap;html=1;" parent="1" vertex="1">
          <mxGeometry x="667.5" y="877.5" width="120" height="60" as="geometry" />
        </mxCell>
        <mxCell id="4NYzwK4U0VfKDkdtX9t3-3" value="no" style="text;html=1;align=center;verticalAlign=middle;whiteSpace=wrap;rounded=0;" vertex="1" parent="1">
          <mxGeometry x="460" y="585" width="60" height="30" as="geometry" />
        </mxCell>
        <mxCell id="4NYzwK4U0VfKDkdtX9t3-4" value="no" style="text;html=1;align=center;verticalAlign=middle;whiteSpace=wrap;rounded=0;" vertex="1" parent="1">
          <mxGeometry x="460" y="242.5" width="60" height="30" as="geometry" />
        </mxCell>
        <mxCell id="4NYzwK4U0VfKDkdtX9t3-8" value="Polls input register" style="rounded=1;whiteSpace=wrap;html=1;" vertex="1" parent="1">
          <mxGeometry x="-102.5" y="530" width="120" height="60" as="geometry" />
        </mxCell>
      </root>
    </mxGraphModel>
  </diagram>
  <diagram id="h4niRhYAlHzlL3p1m9Ma" name="Página-3">
    <mxGraphModel dx="1162" dy="426" grid="1" gridSize="10" guides="1" tooltips="1" connect="1" arrows="1" fold="1" page="1" pageScale="1" pageWidth="827" pageHeight="1169" math="0" shadow="0">
      <root>
        <mxCell id="0" />
        <mxCell id="1" parent="0" />
      </root>
    </mxGraphModel>
  </diagram>
</mxfile>
